<?xml version="1.0" standalone="no"?>
<!DOCTYPE svg PUBLIC "-//W3C//DTD SVG 20010904//EN"
 "http://www.w3.org/TR/2001/REC-SVG-20010904/DTD/svg10.dtd">
<svg version="1.0" xmlns="http://www.w3.org/2000/svg"
 width="640.000000pt" height="1280.000000pt" viewBox="0 0 640.000000 1280.000000"
 preserveAspectRatio="xMidYMid meet">
<metadata>
Created by potrace 1.15, written by Peter Selinger 2001-2017
</metadata>
<g transform="translate(0.000000,1280.000000) scale(0.100000,-0.100000)"
fill="#000000" stroke="none">
<path d="M4764 12773 c-106 -457 -207 -694 -411 -970 -30 -41 -53 -76 -51 -77
1 -2 84 7 183 20 99 12 181 21 182 20 1 -1 38 -240 82 -531 174 -1157 194
-1350 195 -1855 1 -399 -5 -441 -81 -600 -76 -158 -176 -242 -343 -288 -41
-11 -173 -53 -293 -92 -121 -39 -220 -70 -222 -68 -7 6 -55 302 -85 520 -65
476 -119 1017 -165 1668 -28 398 -72 1145 -68 1153 2 4 48 7 102 7 54 0 132 3
174 6 l76 7 -102 72 c-241 170 -367 308 -588 640 -78 118 -146 215 -149 215
-10 0 -65 -123 -161 -357 -143 -349 -212 -463 -409 -683 -40 -45 -57 -70 -45
-67 41 13 398 78 409 74 12 -4 26 -102 90 -612 72 -571 113 -969 176 -1680 49
-561 82 -986 78 -990 -2 -3 -160 2 -350 10 -393 16 -404 18 -519 105 -152 114
-304 350 -404 625 -42 115 -130 498 -175 758 -35 204 -65 489 -80 757 -14 262
-32 851 -25 858 3 3 90 16 194 28 104 12 199 24 211 26 18 3 14 9 -31 42 -166
124 -334 300 -547 576 -161 208 -262 334 -271 337 -3 2 -21 -63 -39 -145 -88
-384 -200 -680 -341 -895 -28 -43 -51 -82 -51 -88 0 -7 14 -9 37 -5 94 15 385
47 389 43 2 -2 -1 -115 -6 -251 -16 -389 6 -829 61 -1211 46 -323 212 -1203
254 -1349 96 -330 323 -589 730 -831 l129 -78 351 7 c192 3 386 9 431 12 l81
6 12 -118 c80 -765 195 -1788 306 -2724 41 -344 110 -929 155 -1300 167 -1412
254 -2185 320 -2870 22 -223 42 -423 45 -446 6 -41 7 -41 108 -91 150 -74 196
-88 307 -87 83 0 102 3 152 27 66 32 143 98 191 165 l35 47 -49 275 c-383
2155 -563 3467 -708 5160 -43 496 -95 1253 -121 1740 -6 113 -12 222 -14 242
l-4 37 132 31 c72 17 246 58 386 91 320 75 368 96 491 218 173 171 291 414
354 725 24 119 24 125 15 406 -10 296 -11 324 -36 605 -41 466 -131 1040 -278
1759 -33 165 -48 259 -42 262 6 2 83 17 171 34 184 36 197 39 193 49 -2 5 -48
42 -104 84 -125 94 -255 229 -335 350 -34 50 -105 181 -158 289 -53 109 -102
198 -108 198 -7 0 -15 -12 -19 -27z"/>
</g>
</svg>
