<?xml version="1.0" standalone="no"?>
<!DOCTYPE svg PUBLIC "-//W3C//DTD SVG 20010904//EN"
 "http://www.w3.org/TR/2001/REC-SVG-20010904/DTD/svg10.dtd">
<svg version="1.0" xmlns="http://www.w3.org/2000/svg"
 width="1217.000000pt" height="1280.000000pt" viewBox="0 0 1217.000000 1280.000000"
 preserveAspectRatio="xMidYMid meet">
<metadata>
Created by potrace 1.15, written by Peter Selinger 2001-2017
</metadata>
<g transform="translate(0.000000,1280.000000) scale(0.100000,-0.100000)"
fill="#000000" stroke="none">
<path d="M133 12774 c-68 -34 -123 -119 -123 -191 0 -20 1281 -1143 3843
-3371 53 -47 97 -87 97 -90 0 -2 -14 -20 -31 -40 -75 -85 -98 -195 -59 -277
15 -30 229 -237 817 -786 1074 -1003 1205 -1123 1733 -1584 157 -136 310 -274
340 -305 30 -31 139 -128 243 -215 103 -87 187 -166 187 -175 0 -9 -23 -44
-51 -79 -60 -74 -69 -96 -69 -162 0 -60 11 -89 84 -209 96 -160 105 -226 52
-374 -19 -52 -32 -97 -29 -100 19 -19 41 -2 62 49 32 77 95 139 162 160 58 18
241 32 283 21 16 -4 26 -13 26 -25 0 -10 9 -30 20 -44 25 -31 25 -33 1 -150
l-19 -96 40 -92 c122 -284 116 -526 -21 -804 l-49 -99 23 -18 c251 -197 495
-378 510 -378 12 0 48 7 80 16 74 20 149 22 195 5 29 -10 108 -104 476 -569
242 -306 840 -1060 1328 -1675 l888 -1118 32 43 c18 24 162 223 322 442 230
318 306 416 374 480 222 211 263 271 264 387 l1 65 -198 175 -199 174 -112
220 -113 220 -979 893 c-538 491 -989 900 -1001 908 -20 15 -27 14 -85 -6
-190 -66 -420 -67 -578 -4 -153 61 -279 199 -326 359 -13 42 -18 92 -17 165 0
122 28 225 88 324 19 32 35 60 35 63 0 9 -285 399 -303 413 -17 14 -17 16 13
46 28 30 33 31 73 22 55 -12 109 -44 178 -107 42 -38 59 -47 68 -38 20 20 12
37 -37 86 -35 35 -70 57 -132 82 -64 26 -87 41 -99 63 -39 72 -74 82 -135 41
-47 -32 -56 -31 -56 3 0 29 9 45 72 128 l39 52 -66 62 c-106 103 -98 101 -160
40 -30 -30 -59 -50 -66 -47 -11 4 -10 6 1 6 30 2 163 157 165 193 1 11 10 28
21 38 19 19 22 17 177 -122 150 -133 159 -143 153 -171 -5 -26 4 -40 100 -146
72 -79 114 -118 132 -121 19 -4 28 -12 30 -30 5 -35 24 -54 317 -309 143 -124
274 -239 292 -254 l33 -29 62 38 c102 62 198 165 249 268 38 77 41 90 28 100
-9 6 -127 112 -264 236 -276 251 -331 295 -376 305 -19 4 -34 16 -39 31 -5 13
-67 66 -137 118 -117 87 -131 94 -163 90 -33 -5 -43 1 -190 130 -85 74 -155
142 -155 151 0 23 -247 236 -260 225 -6 -4 -36 16 -74 51 -56 50 -63 60 -51
74 11 13 10 19 -9 38 -27 30 -27 33 9 74 18 20 30 45 30 62 0 80 -206 254
-279 236 -14 -3 -42 -22 -62 -42 -25 -23 -39 -31 -44 -23 -5 8 -12 7 -26 -6
-17 -15 -20 -15 -51 11 -77 64 -108 96 -103 105 7 11 -241 228 -260 226 -7 0
-93 68 -190 153 -156 135 -188 170 -283 295 -309 411 -393 503 -683 747 l-118
99 -73 -58 c-119 -95 -207 -200 -306 -363 l-22 -36 122 -110 c284 -253 385
-324 838 -588 110 -64 166 -106 311 -234 98 -86 178 -158 178 -161 0 -3 -13
-20 -29 -39 l-29 -33 -113 98 c-62 55 -121 105 -130 112 -14 12 -21 8 -51 -25
-33 -35 -36 -37 -54 -22 -1279 1114 -2422 2110 -4227 3684 -1614 1407 -2256
1961 -2275 1963 -14 1 -41 -5 -58 -14z m4168 -3751 c13 -16 12 -17 -3 -4 -10
7 -18 15 -18 17 0 8 8 3 21 -13z m80 -70 c13 -16 12 -17 -3 -4 -10 7 -18 15
-18 17 0 8 8 3 21 -13z m84 -73 c10 -11 16 -20 13 -20 -3 0 -13 9 -23 20 -10
11 -16 20 -13 20 3 0 13 -9 23 -20z m176 -157 c13 -16 12 -17 -3 -4 -10 7 -18
15 -18 17 0 8 8 3 21 -13z m170 -150 c13 -16 12 -17 -3 -4 -10 7 -18 15 -18
17 0 8 8 3 21 -13z m70 -60 c13 -16 12 -17 -3 -4 -10 7 -18 15 -18 17 0 8 8 3
21 -13z m90 -80 c13 -16 12 -17 -3 -4 -10 7 -18 15 -18 17 0 8 8 3 21 -13z
m80 -70 c13 -16 12 -17 -3 -4 -17 13 -22 21 -14 21 2 0 10 -8 17 -17z m90 -80
c13 -16 12 -17 -3 -4 -10 7 -18 15 -18 17 0 8 8 3 21 -13z m80 -70 c13 -16 12
-17 -3 -4 -10 7 -18 15 -18 17 0 8 8 3 21 -13z m90 -80 c13 -16 12 -17 -3 -4
-10 7 -18 15 -18 17 0 8 8 3 21 -13z m80 -70 c13 -16 12 -17 -3 -4 -10 7 -18
15 -18 17 0 8 8 3 21 -13z m594 -523 c10 -11 16 -20 13 -20 -3 0 -13 9 -23 20
-10 11 -16 20 -13 20 3 0 13 -9 23 -20z m76 -67 c13 -16 12 -17 -3 -4 -10 7
-18 15 -18 17 0 8 8 3 21 -13z m90 -80 c13 -16 12 -17 -3 -4 -10 7 -18 15 -18
17 0 8 8 3 21 -13z m80 -70 c13 -16 12 -17 -3 -4 -10 7 -18 15 -18 17 0 8 8 3
21 -13z m90 -80 c13 -16 12 -17 -3 -4 -10 7 -18 15 -18 17 0 8 8 3 21 -13z
m80 -70 c13 -16 12 -17 -3 -4 -10 7 -18 15 -18 17 0 8 8 3 21 -13z m385 -125
l29 -33 -32 29 c-31 28 -38 36 -30 36 2 0 16 -15 33 -32z m74 -63 c13 -14 21
-25 18 -25 -2 0 -15 11 -28 25 -13 14 -21 25 -18 25 2 0 15 -11 28 -25z m76
-67 l29 -33 -32 29 c-31 28 -38 36 -30 36 2 0 16 -15 33 -32z m-195 -45 c13
-16 12 -17 -3 -4 -10 7 -18 15 -18 17 0 8 8 3 21 -13z m279 -28 c13 -14 21
-25 18 -25 -2 0 -15 11 -28 25 -13 14 -21 25 -18 25 2 0 15 -11 28 -25z m482
-161 c4 -15 355 -323 383 -335 11 -5 46 -32 78 -62 l57 -53 -29 -28 -30 -29
-73 64 c-41 35 -187 163 -326 283 -138 121 -252 224 -252 230 0 5 12 22 26 37
l27 28 68 -61 c37 -34 69 -67 71 -74z m-406 94 l29 -33 -32 29 c-31 28 -38 36
-30 36 2 0 16 -15 33 -32z m80 -70 l29 -33 -32 29 c-31 28 -38 36 -30 36 2 0
16 -15 33 -32z m-181 -58 c10 -11 16 -20 13 -20 -3 0 -13 9 -23 20 -10 11 -16
20 -13 20 3 0 13 -9 23 -20z m255 -5 c13 -14 21 -25 18 -25 -2 0 -15 11 -28
25 -13 14 -21 25 -18 25 2 0 15 -11 28 -25z m-179 -62 c13 -16 12 -17 -3 -4
-10 7 -18 15 -18 17 0 8 8 3 21 -13z m259 -8 c13 -14 21 -25 18 -25 -2 0 -15
11 -28 25 -13 14 -21 25 -18 25 2 0 15 -11 28 -25z m76 -67 l29 -33 -32 29
c-31 28 -38 36 -30 36 2 0 16 -15 33 -32z m-221 -28 c21 -22 37 -40 34 -40 -3
0 -23 18 -44 40 -21 22 -37 40 -34 40 3 0 23 -18 44 -40z m305 -45 c13 -14 21
-25 18 -25 -2 0 -15 11 -28 25 -13 14 -21 25 -18 25 2 0 15 -11 28 -25z m-220
-30 c13 -14 21 -25 18 -25 -2 0 -15 11 -28 25 -13 14 -21 25 -18 25 2 0 15
-11 28 -25z m290 -30 c13 -14 21 -25 18 -25 -2 0 -15 11 -28 25 -13 14 -21 25
-18 25 2 0 15 -11 28 -25z m-200 -50 c19 -19 32 -35 29 -35 -3 0 -20 16 -39
35 -19 19 -32 35 -29 35 3 0 20 -16 39 -35z m286 -27 l29 -33 -32 29 c-31 28
-38 36 -30 36 2 0 16 -15 33 -32z m-206 -43 c13 -14 21 -25 18 -25 -2 0 -15
11 -28 25 -13 14 -21 25 -18 25 2 0 15 -11 28 -25z m276 -17 l29 -33 -32 29
c-31 28 -38 36 -30 36 2 0 16 -15 33 -32z m-186 -63 c19 -19 32 -35 29 -35 -3
0 -20 16 -39 35 -19 19 -32 35 -29 35 3 0 20 -16 39 -35z m270 -10 c13 -14 21
-25 18 -25 -2 0 -15 11 -28 25 -13 14 -21 25 -18 25 2 0 15 -11 28 -25z m-190
-60 c13 -14 21 -25 18 -25 -2 0 -15 11 -28 25 -13 14 -21 25 -18 25 2 0 15
-11 28 -25z m266 -7 l29 -33 -32 29 c-31 28 -38 36 -30 36 2 0 16 -15 33 -32z
m-180 -70 l29 -33 -32 29 c-31 28 -38 36 -30 36 2 0 16 -15 33 -32z m260 0
l29 -33 -32 29 c-31 28 -38 36 -30 36 2 0 16 -15 33 -32z m74 -63 c13 -14 21
-25 18 -25 -2 0 -15 11 -28 25 -13 14 -21 25 -18 25 2 0 15 -11 28 -25z m-250
-10 c13 -14 21 -25 18 -25 -2 0 -15 11 -28 25 -13 14 -21 25 -18 25 2 0 15
-11 28 -25z m330 -60 c13 -14 21 -25 18 -25 -2 0 -15 11 -28 25 -13 14 -21 25
-18 25 2 0 15 -11 28 -25z m-244 -17 l29 -33 -32 29 c-31 28 -38 36 -30 36 2
0 16 -15 33 -32z m84 -73 c13 -14 21 -25 18 -25 -2 0 -15 11 -28 25 -13 14
-21 25 -18 25 2 0 15 -11 28 -25z m87 -51 c-3 -3 -12 -4 -19 -1 -8 3 -5 6 6 6
11 1 17 -2 13 -5z m-635 -196 c35 -29 99 -88 143 -131 74 -73 78 -78 49 -73
-27 4 -37 -2 -90 -55 -75 -77 -104 -92 -155 -84 -43 8 -51 -5 -22 -37 10 -11
30 -18 55 -18 40 0 111 30 125 53 19 31 67 57 105 57 39 0 40 -1 33 -27 -17
-73 -38 -97 -95 -114 -52 -16 -130 -36 -176 -46 -30 -7 -59 28 -138 165 -78
134 -102 211 -87 270 17 63 60 89 148 91 36 1 50 -6 105 -51z"/>
</g>
</svg>
