<?xml version="1.0" encoding="iso-8859-1"?>
<!-- Generator: Adobe Illustrator 15.1.0, SVG Export Plug-In . SVG Version: 6.00 Build 0)  -->
<!DOCTYPE svg PUBLIC "-//W3C//DTD SVG 1.1//EN" "http://www.w3.org/Graphics/SVG/1.1/DTD/svg11.dtd">
<svg version="1.1" id="_x31_" xmlns="http://www.w3.org/2000/svg" xmlns:xlink="http://www.w3.org/1999/xlink" x="0px" y="0px"
	 width="512px" height="512px" viewBox="0 0 512 512" style="enable-background:new 0 0 512 512;" xml:space="preserve">
<g>
	<path style="fill:#FFFFFF;" d="M149.739,244.609c-20.294,26.538-25.665,36.357-25.665,55.605
		c-8.553,4.278-4.459,4.459-10.692,10.694c-6.417,6.415-32.119,1.791-29.943,21.387c2.139,19.247-21.388,8.555-34.219,23.525
		c-15.562,18.155-23.526,17.111-36.357,17.111c-12.833,0-27.805,32.081,19.248,21.386c31.56-7.172-2.139,29.943,158.266,42.774
		c13.483,1.079,119.768,6.417,156.126-4.276c36.357-10.693,55.605-27.803,98.381-32.081c42.774-4.278,81.271-19.249,62.023-42.775
		c-19.249-23.526-66.302-23.526-68.44-40.636c-2.138-17.109,4.277-70.576-49.189-104.797
		c-53.469-34.22-76.993-14.972-106.938-21.387C252.399,184.725,177.543,208.251,149.739,244.609z"/>
	<path style="fill:#E8E8E8;" d="M387.423,295.28c-0.879-19.301,28.461-17.737,44.946-26.582
		c-5.671-19.075-17.546-39.82-43.093-56.171c-53.469-34.22-76.993-14.972-106.938-21.387c-7.938-1.701-19.035-1.297-31.574,0.893
		c-13.588,10.678-21.175,20.038-21.175,20.038c-11.177,11.54-6.898,26.518-14.386,34.004c-7.488,7.487-2.139,25.671,10.695,25.671
		c12.837,0,49.207-5.346,54.555-6.417c5.348-1.067,10.697,10.697,6.42,23.534c-4.28,12.836,22.462,39.579,33.157,21.393
		c10.697-18.185,16.046-21.393,13.906-9.626c-2.139,11.767,5.35,35.299,20.323,36.368
		C369.238,338.068,388.492,318.814,387.423,295.28z"/>
	<path style="fill:#FFFFFF;" d="M222.691,245.006c0,0,15.587-10.043,6.898-32.935c-4.743-12.499-9.145-30.222-11.411-55.151
		c-6.416-70.576,96.243-98.381,130.462-81.27c34.219,17.108,70.578,23.524,76.993,53.469c6.418,29.939,0,55.605,4.279,85.548
		c4.275,29.942-21.388,42.773-51.33,53.469c-29.942,10.691-21.388,32.079-19.248,44.912c2.137,12.831-16.581,20.545-18.979,2.556
		c-2.141-16.045,8.284-28.22-4.549-38.915c-12.832-10.692-25.664-10.692-25.664,0c0,10.695,4.277,27.805-10.695,27.805
		c-14.97,0-4.274-21.388-6.413-36.357c-2.142-14.972-14.783-7.33-38.497-4.278C209.854,269.607,222.691,245.006,222.691,245.006z"/>
	<path style="fill:#E8E8E8;" d="M431.279,309.187c0,10.697,3.209,19.256,10.696,22.462c7.488,3.211,40.648,11.768,44.928,24.605
		c4.278,12.835-24.603,4.278-41.72,5.346c-17.114,1.071-54.553,20.325-84.504,20.325s-28.881,20.325-79.155,16.046
		c-50.275-4.28-66.32-11.766-89.854-16.046c-23.534-4.279-29.951-13.905-23.534-12.836c6.419,1.069,89.854,7.488,95.203,7.488
		c5.348,0-11.767,2.14,5.348,0c17.114-2.139,62.041-6.419,72.739-14.978c10.695-8.556,21.395-1.067,33.159-7.486
		c11.767-6.419,31.021-22.465,35.299-31.021c4.278-8.557,17.116-20.324,16.046-28.882
		C424.862,285.652,431.279,294.213,431.279,309.187z"/>
	<path style="fill:#E8E8E8;" d="M326.45,98.461c-53.482-19.256-55.622-9.628-63.11-6.42c-7.489,3.209-65.252,143.337-65.252,143.337
		l22.711,58.481c-0.367,0.22-0.739,0.461-1.114,0.729l-17.75-1.277c-1.52,0-3.012,0.289-4.431,0.815
		c-8.06,2.988-13.827,13.693-9.517,23.473c-7.605,7.671-2.535,23.011,3.806,24.288c3.802,8.949,10.142,19.176,21.554,19.176
		c2.53,8.932,36.632-1.241,29.201-19.071c0.026-0.065,0.054-0.127,0.083-0.191c6.973-4.805,8.647-15.872,5.915-24.216
		c-0.047-4.314-0.984-8.396-3.391-11.606c-9.628-12.836-8.558-39.577-4.278-42.787c4.278-3.209,67.39-49.205,75.946-50.274
		c8.558-1.07,49.205-19.256,49.205-28.882S379.934,117.713,326.45,98.461z"/>
	<path style="fill:#F4F4F4;" d="M502.949,374.438c1.468,5.14-3.211,21.393-35.301,21.393c-32.091,0-42.788,5.348-62.042,12.837
		c-19.254,7.486-57.763,25.673-83.436,28.88c-25.672,3.21-102.688,6.419-150.824,0c-48.137-6.418-60.972-7.487-94.131-25.672
		c-33.162-18.186-35.301-22.464-44.929-22.464c-9.626,0-23.532,1.071-18.185-3.209c5.35-4.278,27.813-5.348,36.371,1.069
		c8.556,6.418,57.761,34.229,97.34,36.369c39.579,2.141,51.346,4.28,65.252,7.488c13.906,3.211,88.782,4.278,103.758-1.069
		s55.624-18.185,72.738-25.671c17.115-7.489,62.041-18.187,68.459-16.046c6.419,2.14,31.022,0,33.161-6.419
		C493.321,375.506,500.808,366.949,502.949,374.438z"/>
	<path style="fill:#E83828;" d="M205.576,157.291c13.906-54.553,31.092-51.674,66.719-49.347
		c35.627,2.328,79.468,46.999,55.939,76.818c-14.53,18.417-39.929,22.731-73.801,53.535c-33.872,30.805-35.068,54.526-35.068,54.526
		c-4.236,13.242,9.396,40.802-1.171,36.599c-15.558-6.187-26.475-46.05-26.475-46.05s-4.093-47.961-2.717-69.551
		C190.383,192.233,202.234,170.404,205.576,157.291z"/>
	<path style="fill:#EB6100;" d="M371.608,235.194c-9.73-8.441-6.915-28.224,10.609-26.192c17.523,2.03,35.689,25.552,52.432,29.843
		c16.741,4.291,12.912,8.026,4.289,8.071c-8.625,0.045-42.613-4.156-50.178-4.248C381.2,242.574,371.608,235.194,371.608,235.194z"
		/>
	<path style="fill:#FFFFFF;" d="M200.229,293.142c-1.282,0-2.541,0.241-3.74,0.682c-6.798,2.501-11.664,11.458-8.026,19.642
		c-6.419,6.417-2.141,19.255,3.209,20.323c3.21,7.488,8.558,16.045,18.184,16.045c2.14,7.488,31.022-1.067,24.604-16.045
		c9.626-6.417,7.487-26.741-3.209-28.88c-2.139-9.628-8.558-16.045-16.045-10.697L200.229,293.142z"/>
	<path style="fill:#FFFFFF;" d="M316.823,196.87c7.488,11.768,8.558,5.35,18.186-6.417c19.252,4.278,22.463-24.605,11.766-36.37
		c0-14.976-4.278-29.951-18.185-33.16c-12.837-16.045-16.045-21.395-28.882-20.323c-18.184-13.906-21.393-12.838-27.812-6.419
		c-14.974-10.697-31.021-9.626-33.16-1.069c-21.393,1.069-25.671,18.184-22.464,24.602c-1.068,4.279,8.558,11.767,16.045,5.35
		c7.488,2.139,24.605-1.07,31.022-5.35c6.417,7.488,18.185,12.838,27.812,10.699c5.348,5.346,6.418,8.556,18.185,10.695
		c6.417,7.488,6.417,18.184,14.976,20.323c8.559,2.139,1.069,11.767,0,14.978c-5.348,5.348-5.348,13.906-5.348,13.906
		L316.823,196.87z"/>
	<path style="fill:#040000;" d="M394.457,194.248c-5.458,2.183-15.687-17.115-1.425-18.541
		C407.291,174.281,401.588,191.395,394.457,194.248z"/>
	<path style="fill:#040000;" d="M330.283,239.882c-10.486,4.494-9.983-15.687,1.425-17.113
		C343.118,221.342,340.265,235.604,330.283,239.882z"/>
</g>
</svg>
