<?xml version="1.0" encoding="iso-8859-1"?>
<!-- Generator: Adobe Illustrator 15.0.0, SVG Export Plug-In . SVG Version: 6.00 Build 0)  -->
<!DOCTYPE svg PUBLIC "-//W3C//DTD SVG 1.1//EN" "http://www.w3.org/Graphics/SVG/1.1/DTD/svg11.dtd">
<svg version="1.1" id="&#x30EC;&#x30A4;&#x30E4;&#x30FC;_1"
	 xmlns="http://www.w3.org/2000/svg" xmlns:xlink="http://www.w3.org/1999/xlink" x="0px" y="0px" width="141.732px"
	 height="141.732px" viewBox="0 0 141.732 141.732" style="enable-background:new 0 0 141.732 141.732;" xml:space="preserve">
<g>
	<path style="fill-rule:evenodd;clip-rule:evenodd;fill:#9C8852;" d="M94.706,81.499c-0.186,1.21,3.248,1.52,3.248,1.52l1.25-3.291
		l3.497-4.812c0,0,0.57-0.846,0.75-1.269c0.183-0.42,1.5-3.291,1.5-3.291l1.875-2.745c-0.364-0.223-0.781-0.48-1.181-0.732
		c-0.617,1.022-1.192,1.957-1.192,1.957v-0.759c0,0-0.171-1.181-0.252-1.774l-0.058-0.405c-0.322-0.209-0.635-0.402-0.909-0.571
		c-0.038,0.796-0.062,1.485-0.032,1.737c0.081,0.723-0.081,2.663-0.249,3.292c-0.171,0.628-1.187,1.98-1.187,1.98l-1.063,1.566
		c0,0-1.928,2.428-2,2.784C98.631,77.044,94.706,81.499,94.706,81.499z"/>
	<path style="fill-rule:evenodd;clip-rule:evenodd;fill:#2F8EBD;" d="M75.761,15.32c-0.607-2.461-5.135-3.439-11.18-1.914
		c-6.051,1.529-9.588,4.545-8.966,7.006l0.915,19.023c0.166-2.961,5.437-6.56,12.469-8.344c7.026-1.783,13.342-1.129,14.877,1.396
		L75.761,15.32z"/>
	<path style="fill-rule:evenodd;clip-rule:evenodd;fill:#3399CC;" d="M77.542,16.721c-0.684-2.762-5.875-3.833-12.663-2.119
		c-6.794,1.717-10.876,5.133-10.176,7.898l1.219,21.637c0.186-3.32,6.103-7.359,13.998-9.365c7.885-2.003,14.972-1.271,16.692,1.558
		L77.542,16.721z"/>
	<path style="fill-rule:evenodd;clip-rule:evenodd;fill:#2F8EBD;" d="M54.527,39.03c0,0,0.949,3.401,0.999,3.858
		c0.09-0.139,0.139-0.405,0.533-0.7l0.999-0.313c0,0-0.521-2.238-0.579-2.276c-0.243-1.004-0.643-0.915-0.657-0.895h-0.006v-0.003
		L54.527,39.03z M55.52,42.938c0.009,0.005,0.012-0.012,0.006-0.05C55.511,42.912,55.508,42.93,55.52,42.938z"/>
	<polygon style="fill-rule:evenodd;clip-rule:evenodd;fill:#4AA5D0;" points="87.591,36.943 55.346,45.147 54.819,43.071 
		87.08,34.87 	"/>
	<path style="fill-rule:evenodd;clip-rule:evenodd;fill:#3399CC;" d="M55.135,43.593l-0.799-3.145c0,0-0.392-1.317,0.28-1.438
		c0.015-0.021,0.414-0.107,0.657,0.895c0.058,0.041,0.799,3.147,0.799,3.147L55.135,43.593z"/>
	<path style="fill-rule:evenodd;clip-rule:evenodd;fill:#2F8EBD;" d="M54.908,40.182c-0.104-0.408-0.303-0.709-0.446-0.671
		l-0.775,0.197l0.376,1.477l0.773-0.197C54.981,40.952,55.01,40.59,54.908,40.182z"/>
	<path style="fill-rule:evenodd;clip-rule:evenodd;fill:#3195C6;" d="M85.254,34.195c0,0,0.448-7.087-3.034-10.995
		c-2.188-2.426-6.12-5.402-15.08-3.691c-0.116-0.026,13.32-4.519,18.346,6.207c0,0,2.105,8.141,0.48,9.623
		C85.966,35.339,85.176,35.429,85.254,34.195z"/>
	<path style="fill-rule:evenodd;clip-rule:evenodd;fill:#51A8D4;" d="M54.367,40.619c0,0,0.171,1.63-0.634,0.936
		c-0.035-0.032-0.373-0.183-0.57-1.561c-0.009,0.008-2.409-11.001,7.636-18.447c-0.104,0.026,11.015-8.198,20.595-1.427
		c-0.04,0.063,6.87,4.085,5.223,14.623c0.012,0.052-0.153,0.813-0.64,0.492v0.003c-0.009,0.017,0.193,0.145,0.254-1.17
		c0.016-0.023,1.329-19.952-20.339-12.917C65.866,21.194,52.61,25.736,54.367,40.619z"/>
	<path style="fill-rule:evenodd;clip-rule:evenodd;fill:#51A8D4;" d="M87.101,34.954c0.877,3.575-5.61,8.299-14.498,10.563
		c-8.899,2.267-16.854,1.213-17.764-2.359c-0.909-3.578,5.6-8.326,14.527-10.593C78.288,30.302,86.224,31.376,87.101,34.954z"/>
	<path style="fill-rule:evenodd;clip-rule:evenodd;fill:#64B3D9;" d="M87.591,36.943c0.873,3.569-5.608,8.291-14.493,10.555
		c-8.894,2.267-16.846,1.219-17.752-2.351c-0.909-3.575,5.596-8.32,14.521-10.587C78.78,32.296,86.712,33.368,87.591,36.943z"/>
	<path style="fill-rule:evenodd;clip-rule:evenodd;fill:#3399CC;" d="M86.05,37.342c0.724,2.944-5.196,6.986-13.232,9.032
		c-8.043,2.049-15.176,1.329-15.923-1.612c-0.75-2.947,5.19-7.003,13.259-9.052C78.21,33.66,85.325,34.395,86.05,37.342z"/>
	<path style="fill-rule:evenodd;clip-rule:evenodd;fill:#EFEFEF;" d="M62.236,72.406c0,0-3.208,0.839-5.462,3.538
		c-2.256,2.697-5.976,6.759-7.394,9.648c-1.416,2.889-3.384,8.537-3.535,11.576c-0.15,3.043,0.643,13.494,2.893,16.403
		c2.252,2.909,2.261,4.421,5.787,6.754c3.523,2.336,3.521,2.875,6.106,4.184c2.587,1.306,6.69,3.381,8.357,3.858
		c1.665,0.476,8.454,0.811,10.607,0.643c2.151-0.167,12.24-4.6,13.499-5.79c1.257-1.189,6.72-6.956,7.392-8.36
		c0.671-1.406,1.948-5.457,2.57-7.721c0.622-2.261,3.185-5.744,0.643-14.472c-2.542-8.729-4.2-10.646-4.82-11.577
		c-0.619-0.935-7.648-6.673-8.357-7.396c-0.706-0.727-7.495-3.966-9.962-3.862c-2.469,0.107-3.596,0.159-6.751,0.321
		C70.652,70.319,63.147,72.224,62.236,72.406z"/>
	<path style="fill-rule:evenodd;clip-rule:evenodd;fill:#EFEFEF;" d="M86.984,37.029c-0.755-0.434-1.87-1.065-3.092-1.696
		c-2.833-1.129-8.054-1.071-13.739,0.377c-5.167,1.311-9.46,3.448-11.684,5.587c-0.492,0.646-0.956,1.253-1.384,1.847
		c-0.243,0.553-0.319,1.088-0.197,1.589l-1.091,0.379c-0.229,0.402-0.44,0.813-0.631,1.242c-0.901,2.023-1.685,3.25-1.607,5.79
		c0.075,2.539,0.061,7.272,0.321,9.006c0.261,1.731,3.193,7.686,4.499,8.682c1.306,0.996,2.536,1.653,4.82,3.217
		c2.285,1.563,2.432,2.197,4.501,2.573c2.07,0.38,8.668,1.036,10.283,0.643c1.618-0.391,3.767-1.045,5.466-1.285
		s5.637-1.537,7.069-3.537c1.437-2.001,3.923-6.541,4.823-8.686c0.897-2.145,1.922-7.752,1.285-11.255
		c-0.64-3.503-1.743-6.398-2.893-8.04C92.587,41.817,89.199,38.292,86.984,37.029z"/>
	<path style="fill-rule:evenodd;clip-rule:evenodd;fill:#666666;" d="M71.894,51.238c0,0-1.042-0.293-1.685,0.426
		c-0.643,0.717-0.559,2.089-0.875,2.454c-0.313,0.368,2.136,2.207,2.136,2.207l2.53-1.271c0,0,0.289-1.566,0-2.119
		C73.708,52.381,71.894,51.238,71.894,51.238z"/>
	<path style="fill-rule:evenodd;clip-rule:evenodd;fill:#666666;" d="M84.237,49.003c0,0-0.547,0.747-0.145,1.515
		c0.394,0.743,1.496,1.149,1.688,1.502c0.188,0.351,2.412-0.851,2.412-0.851l-0.099-2.498c0,0-1.19-0.857-1.757-0.82
		C85.771,47.889,84.237,49.003,84.237,49.003z"/>
	<path style="fill-rule:evenodd;clip-rule:evenodd;fill:#666666;" d="M88.716,61.02c0,0-1.838,4.203-5.816,4.927
		c0.09,0.185-4.822,1.343-7.448-1.83c-0.066,0.101-0.196-0.671-0.972-0.266c0.011,0.003-0.49,0.391,0.048,0.979
		c-0.005,0,2.733,3.3,8.425,2.096c0.087,0.116,5.025-0.961,6.754-5.313c0.075-0.086,0.44-0.64-0.052-0.976
		C89.654,60.612,89.176,60.273,88.716,61.02z"/>
	<path style="fill-rule:evenodd;clip-rule:evenodd;fill:#9C8852;" d="M56.773,86.557c0,0-5.466-3.859-7.073-5.145
		c-1.607-1.288-5.141-2.895-5.462-4.181c-0.096-0.382-0.275-0.902-0.507-1.473c-0.316,0.764-0.738,1.682-1.25,2.55
		c1.039,0.684,2.4,1.494,2.4,1.494s-2.519,0.205-2.893,0c-0.066-0.035-0.208-0.099-0.399-0.18c-0.307,0.388-0.637,0.732-0.984,1.005
		c0.159,0.069,0.304,0.118,0.42,0.142c0.59,0.112,5.083,0.706,4.82,0.643c-0.263-0.063,0.964,0,0.964,0l3.213,2.249
		c0,0,5.162,4.201,5.145,4.505c-0.02,0.304,0.643,0.643,0.643,0.643S57.931,88.499,56.773,86.557z M34.543,79.163
		c-0.162,0-0.27-0.003-0.27-0.003l0.321,0.043L34.543,79.163z"/>
	<path style="fill-rule:evenodd;clip-rule:evenodd;fill:#E9E9E9;" d="M64.537,126.455c1.786,0.862,3.506,1.644,4.45,1.913
		c1.665,0.476,8.454,0.811,10.607,0.643c2.151-0.167,12.24-4.6,13.499-5.79c1.257-1.189,6.72-6.956,7.392-8.36
		c0.671-1.406,1.948-5.457,2.57-7.721c0.585-2.116,2.866-5.307,1.068-12.868c-0.548,2.408-1.989,8.645-2.675,10.618
		c-0.857,2.464-8.569,12.973-14.785,15.437C80.54,122.758,72.959,126.75,64.537,126.455z"/>
	<path style="fill-rule:evenodd;clip-rule:evenodd;fill:#E9E9E9;" d="M71.972,76.146c2.44,0.221,5.071,0.348,6.013,0.119
		c1.618-0.391,3.767-1.045,5.466-1.285s5.637-1.537,7.069-3.537c1.437-2.001,3.923-6.541,4.823-8.686
		c0.753-1.795,1.592-6.013,1.474-9.394c-1.167,2.304-4.181,8.303-4.366,9.073c-0.234,0.958-3.537,5.147-3.537,5.147
		s-2.644,2.241-3.535,2.895c-0.892,0.651-6.105,3.537-6.105,3.537L71.972,76.146z"/>
	<path style="fill-rule:evenodd;clip-rule:evenodd;fill:#E24736;" d="M59.185,70.159c0,0-1.195-0.26-1.968,0.981
		c-0.776,1.244-1.688,2.849-1.642,3.274c0.046,0.423-0.538,1.821-0.657,2.29c-0.116,0.469-0.208,1.285,0.657,1.636
		c0.866,0.35,1.74,1.612,3.938,2.617c2.2,1.002,4.154,1.638,5.579,1.963c1.421,0.324,5.141,0.515,6.56,0.654
		c1.418,0.135,4.305,0.096,5.905,0c1.604-0.096,4.939-0.397,5.906-0.654c0.967-0.261,3.652-0.724,4.594-1.309
		c0.941-0.586,3.068-1.543,3.938-2.29c0.865-0.747,1.664-1.966,1.969-2.29c0.304-0.327,0.234-1.008,0.326-1.309
		c0.093-0.305,0.143-0.495,0-0.981c-0.141-0.489-0.891-1.149-0.983-1.638c-0.093-0.487-0.822-2.178-0.984-2.618
		c-0.162-0.437-0.657-0.654-0.657-0.654l-0.984,1.309c0,0-1.618,0.186-2.296,0.654c-0.674,0.473-2.324,0.489-3.61,0.654
		c-1.282,0.168-3.919,0.675-4.591,0.655c-0.671-0.019-2.146,0.323-3.28,0.329c-1.138,0.003-2.263-0.006-3.282,0
		c-1.019,0.003-1.233,0.229-2.296,0c-1.065-0.231-2.641-0.495-3.61-0.657c-0.967-0.159-3.28-0.654-3.28-0.654
		s-1.589-0.776-2.625-1.309C60.774,70.284,58.999,70.388,59.185,70.159z"/>
	<path style="fill-rule:evenodd;clip-rule:evenodd;fill:#E45747;" d="M78.855,93.936c0.131-0.599-0.015-1.4-0.046-2.212
		c-0.009,0.05-0.009,0.026-0.003-0.04c-0.012-0.321-0.003-0.646,0.049-0.958c0.134-0.799-0.021,0.625-0.049,0.958l0.003,0.04
		l0.046-0.354c0.186-1.436,0.047-3.248,0-4.174c-0.046-0.929,0.047-1.314,0-2.246c-0.046-0.936-0.495-2.209-0.385-3.214
		c0.106-1.005-0.11-3.23,0-3.855c0.106-0.623-0.11-2.455,0-2.89c0.106-0.435,0.277-2.134-0.388-2.25
		c-0.666-0.115-8.821-0.492-8.821-0.492s-0.122,0.191-0.727,2.073c-0.602,1.879-0.597,3.475-0.504,3.88
		c0.093,0.407,0.449,2.22,0.385,3.534c-0.061,1.312,0.371,3.758,0.388,4.175c0.014,0.419-0.018,2.657,0,3.532
		c0.014,0.877,0.217,1.751,0,2.57c-0.217,0.816-0.388,2.886-0.388,2.886l0.443,0.613c-0.012,0.192-0.061,0.443-0.055,0.672
		c0.008,0.392-0.073,0.996,0,1.286c0.072,0.286,0.186,0.938,0,1.285c-0.186,0.345-0.458,0.452-0.388,0.964
		c0.073,0.51,0.574,1.092,0.388,1.604c-0.186,0.516,0.055,1.144,0,1.286c-0.058,0.145,0.828,0.445,0.772,0.321
		c-0.183-0.07-0.524-0.675-0.388-0.965c0.139-0.286,0.57-0.564,0.388-0.964c-0.183-0.396-0.46-0.669-0.388-0.961
		c0.075-0.296-0.203-0.507,0-0.964c0.205-0.46,0.443-0.504,0.388-0.964c-0.055-0.464-0.011-0.819,0-1.285c0.003-0.087,0-0.2,0-0.321
		l0.435,0.052c0.014,0.301,0.022,0.579-0.015,0.912c-0.055,0.46,0.183,0.503,0.385,0.964c0.206,0.457-0.072,0.668,0,0.964
		c0.076,0.292-0.202,0.564-0.385,0.964c-0.182,0.396,0.249,0.675,0.385,0.961c0.14,0.29-0.202,0.895-0.385,0.965
		c-0.055,0.124,0.828-0.177,0.773-0.322c-0.059-0.141,0.185-0.77,0-1.285c-0.186-0.512,0.315-1.094,0.388-1.604
		c0.069-0.509-0.203-0.619-0.388-0.964c-0.186-0.348-0.073-0.996,0-1.285c0.012-0.05,0.02-0.11,0.025-0.177l0.713,0.084
		c-0.016,0.37-0.059,0.818,0.003,1.057c0.072,0.286,0.185,0.938,0,1.285c-0.186,0.345-0.461,0.451-0.389,0.964
		c0.073,0.51,0.573,1.091,0.389,1.604c-0.186,0.515,0.054,1.143,0,1.285c-0.058,0.145,0.825,0.445,0.772,0.321
		c-0.186-0.069-0.527-0.675-0.388-0.964c0.139-0.287,0.57-0.565,0.388-0.965c-0.186-0.396-0.46-0.668-0.388-0.961
		c0.075-0.295-0.203-0.507,0-0.964c0.202-0.46,0.44-0.504,0.388-0.964c-0.055-0.464-0.012-0.819,0-1.285c0-0.087,0-0.2,0-0.321
		l0.428-0.023c0.016,0.333,0.033,0.628-0.008,0.987c-0.055,0.46,0.183,0.503,0.385,0.964c0.203,0.457-0.072,0.669,0,0.964
		c0.075,0.292-0.202,0.564-0.385,0.961c-0.186,0.399,0.246,0.678,0.385,0.965c0.139,0.289-0.202,0.895-0.385,0.964
		c-0.055,0.124,0.828-0.177,0.772-0.321c-0.058-0.143,0.186-0.771,0-1.286c-0.176-0.483,0.259-1.027,0.368-1.517
		c0.113,0.489,0.547,1.033,0.373,1.517c-0.188,0.516,0.056,1.144,0,1.286c-0.058,0.145,0.825,0.445,0.773,0.321
		c-0.186-0.069-0.527-0.675-0.389-0.964c0.14-0.287,0.57-0.565,0.389-0.965c-0.186-0.396-0.461-0.669-0.389-0.961
		c0.076-0.295-0.202-0.507,0-0.964c0.203-0.461,0.44-0.504,0.389-0.964c-0.044-0.351-0.026-0.643-0.012-0.964h0.012
		c0.112,0.017,0.264,0.023,0.439,0.021c-0.002,0.098-0.009,0.196-0.02,0.301c-0.056,0.46,0.182,0.504,0.385,0.964
		c0.202,0.457-0.072,0.669,0,0.964c0.074,0.293-0.203,0.564-0.385,0.964c-0.186,0.397,0.245,0.675,0.385,0.961
		c0.139,0.29-0.203,0.895-0.385,0.964c-0.056,0.125,0.828-0.176,0.772-0.32c-0.043-0.11,0.093-0.514,0.067-0.93
		c0.161,0.414,0.428,0.854,0.285,1.25c-0.185,0.516,0.056,1.144,0,1.286c-0.057,0.145,0.828,0.445,0.773,0.321
		c-0.183-0.07-0.526-0.675-0.388-0.964c0.139-0.287,0.57-0.564,0.388-0.964c-0.183-0.396-0.46-0.669-0.388-0.965
		c0.075-0.292-0.202-0.504,0-0.961c0.205-0.46,0.442-0.504,0.388-0.964c-0.055-0.463-0.012-0.819,0-1.285
		c0.003-0.191,0.006-0.498,0.003-0.794l0.414-0.057l0.003,0.208c0.009,0.466,0.055,0.821,0,1.285
		c-0.055,0.46,0.182,0.504,0.385,0.964c0.206,0.457-0.072,0.668,0,0.964c0.075,0.292-0.203,0.564-0.385,0.961
		c-0.186,0.399,0.249,0.678,0.385,0.964c0.14,0.29-0.203,0.895-0.385,0.965c-0.055,0.124,0.828-0.177,0.773-0.321
		c-0.059-0.143,0.186-0.771,0-1.286c-0.186-0.512,0.315-1.094,0.385-1.604c0.072-0.512-0.199-0.619-0.385-0.964
		c-0.186-0.347-0.072-0.999,0-1.285c0.069-0.275-0.004-0.84,0-1.233C78.566,95.722,78.714,94.579,78.855,93.936z M73.506,96.778
		c0.226-0.006,0.458-0.006,0.68-0.003c0,0.145,0.007,0.278,0.032,0.374c0.072,0.289,0.186,0.938,0,1.285
		c-0.13,0.24-0.304,0.367-0.373,0.597c-0.066-0.229-0.237-0.356-0.368-0.597c-0.185-0.348-0.072-0.996,0-1.285
		C73.5,97.054,73.509,96.923,73.506,96.778z M76.122,96.811c0.134-0.012,0.273-0.026,0.414-0.04v0.058
		c0.01,0.391-0.071,0.995,0,1.285c0.073,0.286,0.187,0.938,0,1.285c-0.152,0.284-0.363,0.405-0.393,0.724
		c-0.003-0.451,0.364-0.936,0.425-1.366c0.073-0.509-0.199-0.619-0.385-0.964C76.048,97.54,76.071,97.129,76.122,96.811z"/>
	<path style="fill-rule:evenodd;clip-rule:evenodd;fill:#FFAC1D;" d="M79.044,57.193c0,0,1.26-3.196,3.604-2.163
		c0.022-0.006,4.27,2.044,4.339,2.108c0.072,0.063,0.641,0.474,1.002,0.697c0.359,0.223,0.64,0.478,0.808,0.594
		c0.169,0.116,0.866,0.455,1.065,0.587c0.199,0.136,0.619,0.368,0.871,0.484c0.255,0.116,0.652,0.237,0.791,0.292
		c0.142,0.052,1.172,0.718,1.383,0.833c0.212,0.119,0.809,0.498,0.994,0.625c0.185,0.125,1.225,1.091,1.34,1.034
		c0.119-0.058,1.32,1.39-0.691,2.023c-0.059,0.066-1.457-0.179-1.645-0.258c-0.188-0.081-1.787-0.634-1.963-0.584
		c-0.174,0.046-2.938-0.582-3.233-0.652c-0.296-0.069-1.578-0.544-1.761-0.552c-0.186-0.006-2.501-0.776-2.793-0.916
		c-0.296-0.141-1.336-0.582-1.59-0.604c-0.255-0.023-0.703-0.179-0.938-0.31l-0.755-0.422
		C79.638,59.876,78.314,58.994,79.044,57.193z"/>
	<path style="fill-rule:evenodd;clip-rule:evenodd;fill:#FFC64B;" d="M83.81,55.581l0.136,0.063
		c-0.053,0.049-0.096,0.093-0.122,0.11c-0.072,0.056-0.486,0.66-0.596,0.768c-0.113,0.107-0.197,0.345-0.289,0.492
		c-0.093,0.145-0.268,0.57-0.268,0.57l0.191-0.539c0.061-0.177,0.102-0.246,0.186-0.399c0.081-0.151,0.156-0.295,0.417-0.64
		C83.586,55.847,83.71,55.696,83.81,55.581z M87.538,57.538l0.029,0.02l0.055,0.078c0,0-0.168,0.003-0.203,0.046
		s-0.209,0.165-0.286,0.217c-0.075,0.055-0.333,0.275-0.365,0.391c-0.034,0.116-0.391,0.758-0.454,0.834
		c-0.061,0.075-0.231,0.524-0.267,0.57c-0.038,0.046-0.458,0.97-0.458,0.97s0.311-0.961,0.438-1.187
		c0.128-0.226,0.223-0.625,0.348-0.741c0.127-0.119,0.582-0.866,0.686-0.938c0.104-0.075,0.336-0.197,0.336-0.197L87.538,57.538z
		 M85.861,62.248l-0.13-0.035l-0.004-0.032c-0.011-0.127,0.273-0.947,0.281-1.118c0.012-0.168,0.258-0.498,0.351-0.738
		c0.09-0.243,0.637-1.097,0.637-1.097s-0.445,0.914-0.457,0.973c-0.012,0.058-0.252,0.472-0.27,0.567
		c-0.017,0.098-0.283,0.779-0.351,0.877c-0.069,0.099-0.071,0.434-0.063,0.524L85.861,62.248z M82.923,61.24l-0.104-0.043
		l-0.031-0.107c0,0-0.055-0.252-0.066-0.376c-0.012-0.125,0.269-0.944,0.278-1.112c0.011-0.171,0.254-0.501,0.344-0.741
		c0.093-0.24,0.631-1.094,0.631-1.094s-0.439,0.912-0.451,0.97c-0.012,0.058-0.246,0.475-0.264,0.571
		c-0.018,0.095-0.281,0.775-0.348,0.874c-0.068,0.099-0.072,0.432-0.063,0.524c0.009,0.09,0.026,0.299,0.015,0.351
		c-0.009,0.055,0.099,0.183,0.099,0.183L82.923,61.24z M80.532,60.377l-0.096-0.052c-0.018-0.084-0.041-0.208-0.047-0.284
		c-0.012-0.124,0.267-0.94,0.275-1.108c0.009-0.171,0.248-0.498,0.341-0.738c0.091-0.24,0.626-1.091,0.626-1.091
		s-0.438,0.91-0.448,0.967c-0.012,0.058-0.247,0.472-0.264,0.567c-0.018,0.096-0.278,0.773-0.345,0.872
		c-0.066,0.098-0.069,0.431-0.061,0.524C80.523,60.12,80.54,60.316,80.532,60.377z M88.847,59.454c0,0-0.215,0.448-0.244,0.515
		c-0.028,0.066-0.286,0.501-0.321,0.55c-0.034,0.049-0.249,0.57-0.274,0.707c-0.026,0.139-0.356,1.016-0.356,1.016
		s0.113-0.648,0.122-0.775c0.012-0.13,0.243-0.605,0.382-0.938S88.847,59.454,88.847,59.454z M80.911,55.803
		c0,0-0.208,0.446-0.237,0.512c-0.026,0.067-0.278,0.498-0.313,0.547c-0.032,0.049-0.24,0.567-0.264,0.704
		c-0.026,0.136-0.347,1.01-0.347,1.01s0.106-0.646,0.115-0.773c0.012-0.127,0.237-0.599,0.37-0.932
		C80.372,56.542,80.911,55.803,80.911,55.803z M85.242,57.517c0,0-0.212,0.449-0.24,0.516c-0.029,0.066-0.284,0.498-0.316,0.547
		c-0.034,0.049-0.245,0.57-0.271,0.707c-0.022,0.139-0.351,1.013-0.351,1.013s0.11-0.646,0.119-0.773
		c0.008-0.128,0.24-0.603,0.376-0.935C84.695,58.258,85.242,57.517,85.242,57.517z M89.932,60.792
		c-0.04,0.035-0.355,0.787-0.426,0.999c0.018-0.122,0.041-0.399,0.053-0.472c0.015-0.099,0.162-0.345,0.246-0.516
		c0.081-0.17,0.266-0.434,0.376-0.663c0.084-0.182,0.428-0.504,0.57-0.631l0.159,0.063c-0.101,0.096-0.31,0.29-0.391,0.374
		c-0.11,0.11-0.277,0.327-0.293,0.353C90.213,60.328,89.976,60.754,89.932,60.792z M89.491,61.845c0-0.005,0.006-0.026,0.015-0.055
		C89.501,61.831,89.495,61.854,89.491,61.845z M93.194,62.366c-0.041,0.034-0.359,0.788-0.431,1.001
		c0.017-0.121,0.043-0.402,0.055-0.475c0.015-0.099,0.165-0.344,0.245-0.515c0.085-0.174,0.273-0.437,0.383-0.666
		c0.061-0.13,0.261-0.333,0.42-0.486l0.035,0.026c0.02,0.012,0.052,0.038,0.092,0.07c-0.08,0.078-0.162,0.153-0.205,0.196
		c-0.11,0.113-0.281,0.331-0.295,0.356C93.478,61.9,93.237,62.329,93.194,62.366z M92.752,63.42
		c-0.004-0.003,0.003-0.023,0.012-0.052C92.757,63.409,92.755,63.432,92.752,63.42z M91.318,61.503
		c0.05-0.055,0.252-0.255,0.336-0.344c-0.122,0.19-0.507,0.912-0.51,0.964c-0.003,0.058-0.183,0.509-0.193,0.535
		c-0.012,0.029-0.073,0.293-0.091,0.449c-0.008,0.075-0.02,0.223-0.028,0.353l-0.156-0.02c0.015-0.223,0.05-0.565,0.118-0.712
		c0.11-0.229,0.197-0.538,0.278-0.709C91.153,61.845,91.251,61.576,91.318,61.503z M91.688,61.116
		c0.009-0.006-0.005,0.011-0.034,0.043C91.672,61.133,91.684,61.116,91.688,61.116z"/>
	<path style="fill-rule:evenodd;clip-rule:evenodd;fill:#F5C441;" d="M44.377,74.021c0,0-2.235,7.15-5.356,7.266
		c0.51,0.542-3.645-1.241-4.197-1.881c-0.553-0.64-3.764-2.026-3.764-2.026l-3.581-2.626c0,0-2.163-1.78-2.658-2.44
		c-0.495-0.657-1.158-3.043-0.964-4.392c0.191-1.35,0.48-3.431,0.964-3.66c0.483-0.229,1.751-3.384,6.036-2.929
		c1.453,0.156,2.472,0.871,3.138,1.221s2.898,1.951,2.898,1.951l1.69,2.441c0,0-0.429-2.444-0.483-3.173
		c-0.093-1.23,1.167-1.557,1.448-1.708c0.28-0.151,1.285,0.266,1.69,0.976c0.405,0.709,1.03,2.53,1.207,3.173
		c0.176,0.643,0.371,2.044,0.484,2.684c0.113,0.64,0.292,2.046,0.48,2.686C43.601,72.221,44.377,74.021,44.377,74.021z"/>
	<path style="fill-rule:evenodd;clip-rule:evenodd;fill:#F5C441;" d="M107.938,68.28c0,0-2.087-1.235-3.251-2.023
		c-1.167-0.787-2.4-1.491-2.4-1.491s-0.301-2.22-0.301-2.985c0-0.761,0.345-3.266,0.301-4.174c-0.046-0.912,0.044-2.565,0-3.581
		c-0.046-1.016,0.298-2.385,0.298-2.385s0.227-0.97,1.202-0.895c0-0.076,1.052-0.151,1.198,0.298c0.15,0,1.201-2.388,1.801-2.984
		c0.6-0.597,4.427-4.25,7.2-2.982c2.776,1.269,3.975,3.579,3.902,6.265c0.147,0.223-0.526,4.922-0.603,5.069
		c-0.075,0.15-2.626,5.521-2.999,5.967c-0.377,0.448-1.288,1.676-2.197,2.631c-0.816,0.857-1.039,1.662-1.114,1.813
		c-0.076,0.147-1.011,1.256-1.011,1.256s-0.607,0.385-0.834,0.46C108.908,68.613,107.938,68.28,107.938,68.28z"/>
</g>
</svg>
